<?xml version="1.0" encoding="UTF-8"?><svg id="a" xmlns="http://www.w3.org/2000/svg" viewBox="0 0 800 120"><defs><style>.c{fill:#99754d;}.d{fill:#c9bbaf;}</style></defs><g><path class="d" d="M189.09,66.93l15.17,.91c-.71,6.63-3.16,11.71-7.35,15.25-4.19,3.54-9.33,5.31-15.43,5.31-7.34,0-13.27-2.43-17.78-7.29-4.52-4.86-6.77-11.57-6.77-20.12s2.14-15.31,6.42-20.52,10.25-7.8,17.9-7.8c7.16,0,12.66,1.98,16.5,5.94,3.84,3.96,6.01,9.22,6.52,15.76l-15.49,.83c0-3.62-.69-6.23-2.08-7.84-1.39-1.61-3.02-2.42-4.89-2.42-5.23,0-7.84,5.25-7.84,15.76,0,5.89,.68,9.89,2.04,12,1.36,2.11,3.27,3.17,5.72,3.17,4.38,0,6.84-2.98,7.37-8.95Z"/><path class="d" d="M229.45,88.4c-6.68,0-11.99-2.08-15.92-6.24-3.94-4.16-5.9-9.04-5.9-14.64,0-6.02,2.05-11.04,6.16-15.05,4.11-4.01,9.45-6.02,16.02-6.02s11.96,1.98,15.98,5.94,6.04,8.93,6.04,14.89-2.04,11.04-6.12,15.07c-4.08,4.03-9.5,6.04-16.26,6.04Zm.24-9.59c2.46,0,3.95-1.27,4.5-3.82,.54-2.55,.81-5.21,.81-7.98,0-3.78-.38-6.5-1.15-8.16-.77-1.66-2.14-2.5-4.12-2.5-1.82,0-3.16,.86-4,2.57-.85,1.72-1.27,4.54-1.27,8.48,0,4.62,.44,7.68,1.31,9.17,.87,1.49,2.18,2.24,3.92,2.24Z"/><path class="d" d="M297.3,87.57h-14.81v-5.35c-2.19,4.12-5.81,6.18-10.85,6.18-4.65,0-8.42-1.82-11.31-5.45s-4.34-8.91-4.34-15.82c0-6.47,1.45-11.61,4.36-15.41,2.9-3.8,6.75-5.7,11.53-5.7,3.99,0,7.27,1.52,9.86,4.55v-17.07h15.57v54.07Zm-15.57-25.9c0-3.62-1.49-5.43-4.48-5.43-2.09,0-3.45,1.15-4.1,3.45-.65,2.3-.97,5.11-.97,8.44,0,6.52,1.66,9.78,4.99,9.78,1.27,0,2.34-.51,3.23-1.54,.88-1.03,1.33-2.6,1.33-4.71v-9.98Z"/><path class="d" d="M332.24,73.11l14.73,.99c-.87,3.96-3.1,7.33-6.67,10.12s-8.42,4.18-14.52,4.18c-6.79,0-12.2-1.96-16.24-5.88-4.04-3.92-6.06-8.79-6.06-14.6s1.99-11.1,5.98-15.25c3.99-4.15,9.31-6.22,15.96-6.22s11.65,1.95,15.63,5.86c3.97,3.91,5.96,9.23,5.96,15.96,0,.55-.01,1.32-.04,2.3h-26.97c.05,2.54,.5,4.42,1.35,5.64,.84,1.23,2.46,1.84,4.83,1.84,3.43,0,5.45-1.65,6.06-4.95Zm-1.07-10.46c-.03-2.72-.57-4.55-1.64-5.49-1.07-.94-2.39-1.41-3.97-1.41-3.74,0-5.6,2.3-5.6,6.89h11.21Z"/><path class="d" d="M441.75,33.5l-14.34,54.07h-13.94l-7.56-29.83-7.14,29.83h-14.54l-14.36-54.07h15.62l7.56,31.12,7.38-31.12h13.03l8.03,31.18,7.57-31.18h12.7Z"/><path class="d" d="M460.05,87.57h-15.13V47.29h13.15v8.32c1.51-6.05,5-9.07,10.5-9.07,.55,0,1.32,.05,2.3,.16v14.06c-1.11-.26-2.1-.4-2.97-.4-5.23,0-7.84,2.92-7.84,8.75v18.46Z"/><path class="d" d="M516.46,87.57h-15.05c-.37-1.72-.55-3.59-.55-5.62-2.85,4.3-7.17,6.46-12.95,6.46-4.75,0-8.31-1.21-10.67-3.64-2.36-2.43-3.54-5.21-3.54-8.36,0-4.25,1.93-7.69,5.8-10.32,3.87-2.63,10.73-4.2,20.58-4.73v-.91c0-1.77-.4-2.94-1.21-3.53-.81-.58-1.99-.87-3.54-.87-3.64,0-5.68,1.46-6.1,4.4l-14.42-1.35c2.06-8.42,9.07-12.64,21.03-12.64,3.25,0,6.23,.32,8.95,.97,2.72,.65,4.87,1.66,6.46,3.03s2.65,2.83,3.19,4.36c.54,1.53,.81,4.48,.81,8.83v16.08c0,3.06,.41,5.68,1.23,7.84Zm-16.4-18.85c-6.73,.71-10.1,2.87-10.1,6.46,0,2.43,1.33,3.64,4,3.64,1.69,0,3.13-.5,4.32-1.5,1.19-1,1.78-3.22,1.78-6.65v-1.94Z"/><path class="d" d="M562.76,87.57h-15.8v-25.35c0-2.09-.32-3.42-.97-4-.65-.58-1.46-.87-2.44-.87-2.88,0-4.32,2.01-4.32,6.02v24.2h-15.8V47.29h14.66v5.7c2.16-4.36,6.03-6.54,11.61-6.54,2.93,0,5.41,.56,7.43,1.68,2.02,1.12,3.47,2.57,4.34,4.36,.87,1.78,1.31,4.88,1.31,9.29v25.79Z"/><path class="d" d="M613.06,38.14l-.4,10.81-.75-.04c-1.43-.08-2.44-.12-3.05-.12-2.46,0-3.93,.49-4.44,1.47,3.01,2.48,4.52,5.48,4.52,8.99,0,4.12-1.63,7.22-4.89,9.29-3.26,2.07-7.69,3.11-13.29,3.11-.13,0-.82-.03-2.06-.08-1.16-.05-1.77-.08-1.82-.08-2.56,0-3.84,.66-3.84,1.98,0,1.16,1.13,1.78,3.41,1.86l12.95,.55c4.73,.21,8.19,1.53,10.4,3.96,2.2,2.43,3.31,5.27,3.31,8.52,0,3.86-1.64,7-4.93,9.45-3.29,2.44-9.68,3.66-19.19,3.66-14.66,0-21.98-3.37-21.98-10.1,0-3.67,1.94-6.23,5.82-7.68-2.51-1.77-3.76-3.87-3.76-6.3,0-3.96,2.57-6.94,7.72-8.95-4.3-1.88-6.46-4.99-6.46-9.35,0-3.99,1.74-7.09,5.23-9.31s8.26-3.33,14.34-3.33c2.77,0,5.29,.28,7.57,.83,.92-6.31,4.26-9.47,10.02-9.47,1.32,0,3.18,.11,5.58,.32Zm-27.17,48.91c-.58-.03-1.16-.04-1.74-.04-2.72,0-4.08,.85-4.08,2.54,0,1.56,1.04,2.57,3.11,3.02,2.07,.45,4.84,.67,8.3,.67,3.27,0,5.38-.28,6.32-.83,.94-.55,1.41-1.32,1.41-2.3,0-.69-.21-1.26-.63-1.72-.42-.46-1.43-.73-3.01-.81l-9.66-.53Zm4.04-22.89c3.06,0,4.59-1.62,4.59-4.87s-1.57-4.99-4.71-4.99-4.67,1.69-4.67,5.07c0,3.2,1.6,4.79,4.79,4.79Z"/><path class="d" d="M632.83,33.5v54.07h-15.57V33.5h15.57Z"/><path class="d" d="M667.76,73.11l14.73,.99c-.87,3.96-3.1,7.33-6.67,10.12s-8.42,4.18-14.52,4.18c-6.79,0-12.2-1.96-16.24-5.88-4.04-3.92-6.06-8.79-6.06-14.6s1.99-11.1,5.98-15.25,9.31-6.22,15.96-6.22,11.65,1.95,15.62,5.86,5.96,9.23,5.96,15.96c0,.55-.01,1.32-.04,2.3h-26.97c.05,2.54,.5,4.42,1.35,5.64,.85,1.23,2.46,1.84,4.83,1.84,3.43,0,5.45-1.65,6.06-4.95Zm-1.07-10.46c-.03-2.72-.57-4.55-1.64-5.49-1.07-.94-2.39-1.41-3.97-1.41-3.74,0-5.6,2.3-5.6,6.89h11.21Z"/><path class="d" d="M703.85,87.57h-15.13V47.29h13.15v8.32c1.5-6.05,5-9.07,10.5-9.07,.55,0,1.32,.05,2.3,.16v14.06c-1.11-.26-2.1-.4-2.97-.4-5.23,0-7.84,2.92-7.84,8.75v18.46Z"/><path class="d" d="M716.4,76.16l12.48-1.7c.71,2.91,3.54,4.36,8.48,4.36,4.09,0,6.14-.79,6.14-2.38,0-.69-.4-1.22-1.19-1.6-.79-.38-2.67-.77-5.62-1.17-8.19-1.14-13.3-2.91-15.33-5.33s-3.05-5.1-3.05-8.06c0-4.12,1.72-7.45,5.15-10s7.93-3.82,13.51-3.82c9.77,0,16,3.53,18.7,10.58l-11.96,2.26c-1.11-2.38-3.45-3.56-7.01-3.56-1.69,0-2.95,.23-3.78,.69-.83,.46-1.25,.92-1.25,1.37,0,1.32,1.27,2.12,3.8,2.41,6.6,.73,11.08,1.48,13.43,2.25,2.35,.77,4.36,2.17,6.02,4.2,1.66,2.04,2.5,4.49,2.5,7.37,0,4.41-1.84,7.92-5.53,10.5-3.68,2.59-8.76,3.88-15.23,3.88-10.91,0-17.65-4.08-20.24-12.24Z"/></g><path id="b" class="c" d="M142.37,74.8c-3.47-11.13-13.51-18.37-17.39-20.92-.18,1.34-.61,5.73,2.16,8.44,.28,.27,.6,.54,.98,.79,1.83,.74,6.44,2.9,9.53,7.95,1.6,2.61,2.25,5.11,2.54,6.83,0,0-3.83-9.34-15.42-13.91-.67-.6-1.04-.8-1.39-1.37-2.75-4.46-.09-10.18,.34-11.09,.3-1.05,.53-2.25,.58-3.58,.04-.94-.01-1.84-.13-2.7-.7-3.17-1.72-5.65-2.58-7.38-1.62-3.29-2.6-5.28-4.92-6.63-3.12-1.81-6.51-1.22-6.99-1.13-2.29,.43-2.35,1.31-4.88,1.79-.61,.12-2.33,.44-4.24,.08,6.18,4.57,13.38,6.41,13.38,6.41-13.15-.43-16.74-6.25-17.71-9.17-.45-.65-.94-1.38-1.91-2.21-2.62-2.26-6.55-3.44-10.07-2.82-2.62,.46-4.35,1.8-7.11,3.93-2.31,1.79-3.97,3.59-5.04,4.89h0c-.48,.56-.85,1.05-1.08,1.41-1.01,1.56-1.64,2.82-1.97,3.53-.85,1.9-2.37,6.02-3.98,11.54,5.18,.9,11.88,2.63,19.13,6.08,11.18,5.31,18.75,12.35,23.2,17.23,.88,.44,17.45-1.17,17.32-8.69,0,0,4.01,1.74,4.14,3.61,1.8,5.71-17.46,9.63-19.32,8.51,1.5,1.52,15.93,15.96,24.34,15.23-3.79,.66-12.61,.71-21.49-9.91-11.74-14.06-19.94-19.11-19.94-19.11-18.01-12.55-31.78-11.66-31.78-11.66-2.14,.02-6.95,.39-11.36,3.72-.42,.32-2.11,1.62-3.77,3.86-4.12,5.58-4.41,12.01-4.32,15.11,14.06-6.21,24.51-5.94,31.45-4.55,16.93,3.4,34.27,18.44,51.97,23.71,2.82,.84,7.9,2.1,12.4-.32,3.79-2.04,5.35-5.69,5.63-6.39,1.75-4.31,.56-8.35-.31-11.12Zm-37.83-8.48s-.18-.21-.45-.51h0c-.58-.6-1.02-1.05-1.03-1.06-.39-.39-2.48-1.72-5.34-3.32,2.15-.19,4.5,.66,5.99,2.2,.32,.33,.73,.83,1.07,1.52l1.24,3.16c-.47-.66-.87-1.27-1.47-1.99Z"/></svg>