<?xml version="1.0" encoding="UTF-8"?><svg id="a" xmlns="http://www.w3.org/2000/svg" viewBox="0 0 800 120"><defs><style>.c{fill:#99754d;}.d{letter-spacing:0em;}.e{fill:#c9bbaf;font-family:FranklinGothic-Heavy, Franklin Gothic Heavy;font-size:81.12px;}.f{letter-spacing:-.02em;}.g{letter-spacing:0em;}</style></defs><text class="e" transform="translate(154.63 87.57)"><tspan x="0" y="0">Code </tspan><tspan class="f" x="214.68" y="0">W</tspan><tspan class="g" x="286.14" y="0">rangle</tspan><tspan class="d" x="529.93" y="0">r</tspan><tspan x="561.18" y="0">s</tspan></text><path id="b" class="c" d="M142.37,74.8c-3.47-11.13-13.51-18.37-17.39-20.92-.18,1.34-.61,5.73,2.16,8.44,.28,.27,.6,.54,.98,.79,1.83,.74,6.44,2.9,9.53,7.95,1.6,2.61,2.25,5.11,2.54,6.83,0,0-3.83-9.34-15.42-13.91-.67-.6-1.04-.8-1.39-1.37-2.75-4.46-.09-10.18,.34-11.09,.3-1.05,.53-2.25,.58-3.58,.04-.94-.01-1.84-.13-2.7-.7-3.17-1.72-5.65-2.58-7.38-1.62-3.29-2.6-5.28-4.92-6.63-3.12-1.81-6.51-1.22-6.99-1.13-2.29,.43-2.35,1.31-4.88,1.79-.61,.12-2.33,.44-4.24,.08,6.18,4.57,13.38,6.41,13.38,6.41-13.15-.43-16.74-6.25-17.71-9.17-.45-.65-.94-1.38-1.91-2.21-2.62-2.26-6.55-3.44-10.07-2.82-2.62,.46-4.35,1.8-7.11,3.93-2.31,1.79-3.97,3.59-5.04,4.89h0c-.48,.56-.85,1.05-1.08,1.41-1.01,1.56-1.64,2.82-1.97,3.53-.85,1.9-2.37,6.02-3.98,11.54,5.18,.9,11.88,2.63,19.13,6.08,11.18,5.31,18.75,12.35,23.2,17.23,.88,.44,17.45-1.17,17.32-8.69,0,0,4.01,1.74,4.14,3.61,1.8,5.71-17.46,9.63-19.32,8.51,1.5,1.52,15.93,15.96,24.34,15.23-3.79,.66-12.61,.71-21.49-9.91-11.74-14.06-19.94-19.11-19.94-19.11-18.01-12.55-31.78-11.66-31.78-11.66-2.14,.02-6.95,.39-11.36,3.72-.42,.32-2.11,1.62-3.77,3.86-4.12,5.58-4.41,12.01-4.32,15.11,14.06-6.21,24.51-5.94,31.45-4.55,16.93,3.4,34.27,18.44,51.97,23.71,2.82,.84,7.9,2.1,12.4-.32,3.79-2.04,5.35-5.69,5.63-6.39,1.75-4.31,.56-8.35-.31-11.12Zm-37.83-8.48s-.18-.21-.45-.51h0c-.58-.6-1.02-1.05-1.03-1.06-.39-.39-2.48-1.72-5.34-3.32,2.15-.19,4.5,.66,5.99,2.2,.32,.33,.73,.83,1.07,1.52l1.24,3.16c-.47-.66-.87-1.27-1.47-1.99Z"/></svg>