<?xml version="1.0" encoding="UTF-8"?><svg xmlns="http://www.w3.org/2000/svg" viewBox="0 0 209.19 37.29"><defs><style>.f{fill:#655df6;}</style></defs><g id="a"/><g id="b"><g id="c"><g id="d"><g id="e"><g><path d="M2.93,36.84c-.93,0-1.65-.26-2.16-.79-.51-.52-.77-1.25-.77-2.18V7.9c0-.96,.25-1.69,.74-2.18s1.21-.74,2.14-.74,1.64,.25,2.14,.74c.5,.5,.74,1.22,.74,2.18V31.93h13.05c.81,0,1.43,.21,1.87,.63s.65,1.02,.65,1.8-.22,1.39-.65,1.82c-.44,.44-1.06,.65-1.87,.65H2.93Z"/><path d="M27.54,10.33c-1.05,0-1.87-.26-2.45-.79-.58-.52-.88-1.25-.88-2.18s.29-1.69,.88-2.21c.59-.51,1.4-.76,2.45-.76s1.9,.25,2.47,.76c.57,.51,.86,1.25,.86,2.21s-.29,1.66-.86,2.18c-.57,.53-1.39,.79-2.47,.79Zm0,26.82c-.9,0-1.59-.27-2.07-.81-.48-.54-.72-1.29-.72-2.25V17.58c0-.99,.24-1.75,.72-2.27,.48-.52,1.17-.79,2.07-.79s1.6,.26,2.09,.79c.5,.53,.74,1.28,.74,2.27v16.51c0,.96-.24,1.71-.72,2.25-.48,.54-1.19,.81-2.12,.81Z"/><path d="M39.01,37.2c-.9,0-1.59-.25-2.07-.74-.48-.5-.72-1.21-.72-2.14V7.59c0-.93,.24-1.63,.72-2.12,.48-.48,1.17-.72,2.07-.72s1.6,.24,2.09,.72c.5,.48,.74,1.19,.74,2.12V24.19h.09l7.43-7.83c.6-.6,1.12-1.06,1.57-1.4,.45-.33,1.06-.5,1.85-.5s1.37,.2,1.78,.61,.61,.89,.61,1.46-.27,1.14-.81,1.71l-7.83,8.28v-2.34l8.6,9.27c.54,.57,.79,1.15,.74,1.73s-.29,1.07-.74,1.44c-.45,.38-1.02,.56-1.71,.56-.84,0-1.51-.17-2-.5-.49-.33-1.04-.83-1.64-1.49l-7.83-8.19h-.09v7.29c0,1.92-.95,2.88-2.83,2.88Z"/><path d="M70.74,37.29c-2.49,0-4.63-.46-6.44-1.39-1.8-.93-3.19-2.25-4.16-3.96-.97-1.71-1.46-3.74-1.46-6.08s.47-4.28,1.42-5.99,2.25-3.05,3.92-4.03c1.67-.97,3.56-1.46,5.69-1.46,1.56,0,2.96,.26,4.21,.77,1.25,.51,2.31,1.25,3.2,2.21s1.56,2.12,2.03,3.49,.7,2.9,.7,4.61c0,.54-.19,.95-.56,1.24-.38,.29-.91,.43-1.6,.43h-14.45v-3.24h12.65l-.72,.67c0-1.38-.2-2.53-.61-3.46-.41-.93-.99-1.64-1.76-2.14-.76-.49-1.72-.74-2.86-.74-1.26,0-2.33,.29-3.22,.88s-1.56,1.41-2.03,2.47c-.46,1.07-.7,2.33-.7,3.8v.31c0,2.46,.58,4.3,1.73,5.51,1.15,1.21,2.86,1.82,5.11,1.82,.78,0,1.66-.1,2.63-.29,.97-.2,1.9-.53,2.77-1.01,.63-.36,1.18-.52,1.66-.47,.48,.04,.86,.22,1.15,.52,.29,.3,.46,.67,.52,1.1,.06,.44-.02,.88-.25,1.33-.22,.45-.61,.84-1.15,1.17-1.05,.66-2.26,1.15-3.62,1.46-1.37,.32-2.63,.47-3.8,.47Z"/></g><g><g><path d="M133.9,37.29c-2.28,0-4.26-.46-5.94-1.39-1.68-.93-2.99-2.26-3.92-3.98-.93-1.72-1.39-3.76-1.39-6.1,0-1.77,.26-3.35,.79-4.75,.53-1.39,1.28-2.59,2.27-3.6,.99-1,2.17-1.77,3.55-2.29,1.38-.52,2.92-.79,4.63-.79,2.28,0,4.26,.47,5.94,1.4s2.99,2.25,3.92,3.96c.93,1.71,1.39,3.73,1.39,6.08,0,1.77-.26,3.36-.79,4.77-.53,1.41-1.28,2.62-2.27,3.62-.99,1-2.17,1.77-3.55,2.29s-2.92,.79-4.63,.79Zm0-4.28c1.11,0,2.08-.27,2.92-.81s1.49-1.34,1.96-2.41c.46-1.06,.7-2.39,.7-3.98,0-2.4-.51-4.19-1.53-5.38-1.02-1.18-2.37-1.78-4.05-1.78-1.11,0-2.09,.26-2.92,.79-.84,.53-1.49,1.32-1.96,2.39-.46,1.06-.7,2.39-.7,3.98,0,2.37,.51,4.16,1.53,5.38,1.02,1.21,2.37,1.82,4.05,1.82Z"/><path d="M152.67,37.2c-.9,0-1.59-.25-2.07-.74-.48-.5-.72-1.21-.72-2.14V17.31c0-.93,.24-1.63,.72-2.12,.48-.48,1.15-.72,2.02-.72s1.54,.24,2.03,.72c.48,.48,.72,1.19,.72,2.12v3.28l-.5-1.35c.6-1.5,1.53-2.68,2.79-3.55s2.76-1.31,4.5-1.31,3.22,.42,4.37,1.26c1.14,.84,1.93,2.13,2.38,3.87h-.63c.6-1.59,1.59-2.84,2.97-3.76,1.38-.92,2.97-1.37,4.77-1.37,1.68,0,3.07,.33,4.16,.99,1.1,.66,1.91,1.66,2.45,2.99,.54,1.34,.81,3.02,.81,5.06v10.89c0,.93-.25,1.64-.74,2.14-.5,.49-1.19,.74-2.09,.74s-1.59-.25-2.07-.74c-.48-.5-.72-1.21-.72-2.14v-10.67c0-1.68-.28-2.91-.83-3.69-.56-.78-1.49-1.17-2.81-1.17-1.47,0-2.63,.52-3.47,1.55s-1.26,2.47-1.26,4.3v9.67c0,.93-.24,1.64-.72,2.14-.48,.49-1.17,.74-2.07,.74s-1.6-.25-2.09-.74c-.49-.5-.74-1.21-.74-2.14v-10.67c0-1.68-.28-2.91-.83-3.69-.55-.78-1.48-1.17-2.77-1.17-1.47,0-2.62,.52-3.46,1.55s-1.26,2.47-1.26,4.3v9.67c0,1.92-.95,2.88-2.84,2.88Z"/><path d="M200.1,37.29c-2.49,0-4.63-.46-6.43-1.39s-3.19-2.25-4.16-3.96c-.98-1.71-1.46-3.74-1.46-6.08s.47-4.28,1.42-5.99c.94-1.71,2.25-3.05,3.92-4.03,1.66-.97,3.56-1.46,5.69-1.46,1.56,0,2.96,.26,4.21,.77s2.31,1.25,3.2,2.21c.88,.96,1.56,2.12,2.02,3.49s.7,2.9,.7,4.61c0,.54-.19,.95-.56,1.24-.38,.29-.91,.43-1.6,.43h-14.45v-3.24h12.65l-.72,.67c0-1.38-.2-2.53-.61-3.46-.4-.93-.99-1.64-1.75-2.14-.76-.49-1.72-.74-2.86-.74-1.26,0-2.33,.29-3.22,.88s-1.56,1.41-2.02,2.47c-.47,1.07-.7,2.33-.7,3.8v.31c0,2.46,.58,4.3,1.73,5.51,1.15,1.21,2.86,1.82,5.11,1.82,.78,0,1.66-.1,2.63-.29s1.9-.53,2.77-1.01c.63-.36,1.18-.52,1.67-.47,.48,.04,.86,.22,1.15,.52,.29,.3,.46,.67,.52,1.1,.06,.44-.02,.88-.25,1.33-.23,.45-.61,.84-1.15,1.17-1.05,.66-2.26,1.15-3.62,1.46-1.37,.32-2.63,.47-3.8,.47Z"/></g><g><path class="f" d="M121.97,16.94l-6.17-6.17V3.77c0-1.2-.93-2.19-2.11-2.28-.06,0-.86,.03-.93,.03-.61,0-1.8,1.03-1.8,2.3v2.42l-4.26-4.56c-2.23-2.23-6.11-2.23-8.34,0l-15.16,15.16c-.89,.9-.89,2.35,0,3.24,.9,.9,2.35,.9,3.24,0l15.16-15.16c.49-.49,1.36-.49,1.86,0l15.16,15.16c.45,.45,1.04,.67,1.62,.67,.97,0,1.95-.61,2.29-1.85,.19-.7-.05-1.45-.56-1.96Z"/><path class="f" d="M116.66,22.6l-9.41-9.41c-.35-.35-.94-.1-.94,.39v4.1h-7.56v-4.1c0-.49-.59-.73-.94-.39l-9.52,9.51c-.14,.14-.23,.34-.23,.54v10.23c0,2.08,1.69,3.77,3.77,3.77h6.61c.19,0,.35-.16,.35-.35v-9.87h7.45v9.87c0,.19,.16,.35,.35,.35h6.61c2.08,0,3.77-1.69,3.77-3.77v-10.08c0-.3-.12-.59-.33-.8Z"/></g></g></g></g></g></g></svg>