<?xml version="1.0" encoding="UTF-8"?><svg xmlns="http://www.w3.org/2000/svg" viewBox="0 0 40.06 37.25"><defs><style>.f{fill:#655df6;}</style></defs><g id="a"/><g id="b"><g id="c"><g id="d"><g id="e"><g><path class="f" d="M39.43,16.94l-6.17-6.17V3.77c0-1.2-.93-2.19-2.11-2.28-.06,0-.86,.03-.93,.03-.61,0-1.8,1.03-1.8,2.3v2.42L24.17,1.67c-2.23-2.23-6.11-2.23-8.34,0L.67,16.83c-.89,.9-.89,2.35,0,3.24,.9,.9,2.35,.9,3.24,0L19.07,4.92c.49-.49,1.36-.49,1.86,0l15.16,15.16c.45,.45,1.04,.67,1.62,.67,.97,0,1.95-.61,2.29-1.85,.19-.7-.05-1.45-.56-1.96Z"/><path class="f" d="M34.13,22.6l-9.41-9.41c-.35-.35-.94-.1-.94,.39v4.1h-7.56v-4.1c0-.49-.59-.73-.94-.39L5.77,22.7c-.14,.14-.23,.34-.23,.54v10.23c0,2.08,1.69,3.77,3.77,3.77h6.61c.19,0,.35-.16,.35-.35v-9.87h7.45v9.87c0,.19,.16,.35,.35,.35h6.61c2.08,0,3.77-1.69,3.77-3.77v-10.08c0-.3-.12-.59-.33-.8Z"/></g></g></g></g></g></svg>